<svg width="104" height="24" viewBox="0 0 104 24" fill="none" xmlns="http://www.w3.org/2000/svg">
<path d="M16 0L24 7.99902V24H0V0H16Z" fill="white"/>
<path d="M16 5.34754e-07L24 7.99944L16 8L16 5.34754e-07Z" fill="#FE3C00"/>
<path d="M84.041 24V0H90.0818L99.29 18.449V0H103.6V24H97.5594L88.3512 5.58367V24H84.041Z" fill="white"/>
<path d="M52.9502 24V0H59.9706L65.9461 18.7102L71.9216 0H78.8114V24H74.4686V4.57143L68.3298 23.7714H63.3665L57.2931 4.60408V24H52.9502Z" fill="white"/>
<path d="M32 24V0H48.5225V3.98367H36.4408V9.95918H47.6408V13.8776H36.4408V20.0163H48.5878V24H32Z" fill="white"/>
</svg>
